<mxfile host="app.diagrams.net" agent="Mozilla/5.0 (Windows NT 10.0; Win64; x64) AppleWebKit/537.36 (KHTML, like Gecko) Chrome/130.0.0.0 YaBrowser/24.12.0.0 Safari/537.36" version="26.1.2" pages="2">
  <diagram name="лаба 4" id="VK-iVpbuHp37ylkoww5L">
    <mxGraphModel dx="999" dy="1047" grid="1" gridSize="10" guides="1" tooltips="1" connect="1" arrows="1" fold="1" page="1" pageScale="1" pageWidth="1169" pageHeight="827" math="0" shadow="0">
      <root>
        <mxCell id="0" />
        <mxCell id="1" parent="0" />
        <mxCell id="EBlX027B0urtyxHOa7Lw-1" value="Person" style="swimlane;fontStyle=1;align=center;verticalAlign=top;childLayout=stackLayout;horizontal=1;startSize=26;horizontalStack=0;resizeParent=1;resizeParentMax=0;resizeLast=0;collapsible=1;marginBottom=0;whiteSpace=wrap;html=1;" vertex="1" parent="1">
          <mxGeometry x="360" y="330" width="360" height="270" as="geometry" />
        </mxCell>
        <mxCell id="EBlX027B0urtyxHOa7Lw-2" value="#name: string&lt;div&gt;#age: int&lt;/div&gt;" style="text;strokeColor=none;fillColor=none;align=left;verticalAlign=top;spacingLeft=4;spacingRight=4;overflow=hidden;rotatable=0;points=[[0,0.5],[1,0.5]];portConstraint=eastwest;whiteSpace=wrap;html=1;" vertex="1" parent="EBlX027B0urtyxHOa7Lw-1">
          <mxGeometry y="26" width="360" height="44" as="geometry" />
        </mxCell>
        <mxCell id="EBlX027B0urtyxHOa7Lw-3" value="" style="line;strokeWidth=1;fillColor=none;align=left;verticalAlign=middle;spacingTop=-1;spacingLeft=3;spacingRight=3;rotatable=0;labelPosition=right;points=[];portConstraint=eastwest;strokeColor=inherit;" vertex="1" parent="EBlX027B0urtyxHOa7Lw-1">
          <mxGeometry y="70" width="360" height="8" as="geometry" />
        </mxCell>
        <mxCell id="EBlX027B0urtyxHOa7Lw-4" value="&lt;div&gt;+Person()&lt;/div&gt;&lt;div&gt;&lt;span style=&quot;background-color: transparent; color: light-dark(rgb(0, 0, 0), rgb(255, 255, 255));&quot;&gt;+Person(n : string,a : int)&lt;/span&gt;&lt;/div&gt;&lt;div&gt;&lt;span style=&quot;background-color: transparent; color: light-dark(rgb(0, 0, 0), rgb(255, 255, 255));&quot;&gt;+Person(p : const Person&amp;amp;)&lt;/span&gt;&lt;/div&gt;&lt;div&gt;&lt;span style=&quot;background-color: transparent; color: light-dark(rgb(0, 0, 0), rgb(255, 255, 255));&quot;&gt;+~Person()&lt;/span&gt;&lt;/div&gt;&lt;div&gt;&lt;span style=&quot;background-color: transparent; color: light-dark(rgb(0, 0, 0), rgb(255, 255, 255));&quot;&gt;+set_name(n : string):&amp;nbsp;&lt;/span&gt;&lt;span style=&quot;background-color: transparent; color: light-dark(rgb(0, 0, 0), rgb(255, 255, 255));&quot;&gt;void&lt;/span&gt;&lt;/div&gt;&lt;div&gt;&lt;span style=&quot;background-color: transparent; color: light-dark(rgb(0, 0, 0), rgb(255, 255, 255));&quot;&gt;+set_age(a : int):&amp;nbsp;&lt;/span&gt;&lt;span style=&quot;background-color: transparent; color: light-dark(rgb(0, 0, 0), rgb(255, 255, 255));&quot;&gt;void&lt;/span&gt;&lt;/div&gt;&lt;div&gt;&lt;span style=&quot;background-color: transparent; color: light-dark(rgb(0, 0, 0), rgb(255, 255, 255));&quot;&gt;+get_name():&amp;nbsp;&lt;/span&gt;&lt;span style=&quot;background-color: transparent; color: light-dark(rgb(0, 0, 0), rgb(255, 255, 255));&quot;&gt;string&lt;/span&gt;&lt;/div&gt;&lt;div&gt;&lt;span style=&quot;background-color: transparent; color: light-dark(rgb(0, 0, 0), rgb(255, 255, 255));&quot;&gt;+get_age():&amp;nbsp;&lt;/span&gt;&lt;span style=&quot;background-color: transparent; color: light-dark(rgb(0, 0, 0), rgb(255, 255, 255));&quot;&gt;int&lt;/span&gt;&lt;/div&gt;&lt;div&gt;&lt;span style=&quot;background-color: transparent; color: light-dark(rgb(0, 0, 0), rgb(255, 255, 255));&quot;&gt;+operator=(p : const Person&amp;amp;):&amp;nbsp;&lt;/span&gt;&lt;span style=&quot;background-color: transparent; color: light-dark(rgb(0, 0, 0), rgb(255, 255, 255));&quot;&gt;Person&amp;amp;&lt;/span&gt;&lt;/div&gt;&lt;div&gt;&lt;span style=&quot;background-color: transparent; color: light-dark(rgb(0, 0, 0), rgb(255, 255, 255));&quot;&gt;+operator&amp;lt;&amp;lt;(out : ostream&amp;amp;,p : const Person&amp;amp;):&amp;nbsp;&lt;/span&gt;&lt;span style=&quot;background-color: transparent; color: light-dark(rgb(0, 0, 0), rgb(255, 255, 255));&quot;&gt;friend ostream&amp;amp;&lt;/span&gt;&lt;/div&gt;&lt;div&gt;&lt;span style=&quot;background-color: transparent; color: light-dark(rgb(0, 0, 0), rgb(255, 255, 255));&quot;&gt;+operator&amp;gt;&amp;gt;(in : istream&amp;amp;,p : Person&amp;amp;):&amp;nbsp;&lt;/span&gt;&lt;span style=&quot;background-color: transparent; color: light-dark(rgb(0, 0, 0), rgb(255, 255, 255));&quot;&gt;friend istream&amp;amp;&lt;/span&gt;&lt;/div&gt;&lt;div&gt;&lt;span style=&quot;background-color: transparent; color: light-dark(rgb(0, 0, 0), rgb(255, 255, 255));&quot;&gt;+printinfo():&amp;nbsp;&lt;/span&gt;&lt;span style=&quot;background-color: transparent; color: light-dark(rgb(0, 0, 0), rgb(255, 255, 255));&quot;&gt;void&lt;/span&gt;&lt;/div&gt;" style="text;strokeColor=none;fillColor=none;align=left;verticalAlign=top;spacingLeft=4;spacingRight=4;overflow=hidden;rotatable=0;points=[[0,0.5],[1,0.5]];portConstraint=eastwest;whiteSpace=wrap;html=1;" vertex="1" parent="EBlX027B0urtyxHOa7Lw-1">
          <mxGeometry y="78" width="360" height="192" as="geometry" />
        </mxCell>
        <mxCell id="EBlX027B0urtyxHOa7Lw-7" value="Student" style="swimlane;fontStyle=1;align=center;verticalAlign=top;childLayout=stackLayout;horizontal=1;startSize=26;horizontalStack=0;resizeParent=1;resizeParentMax=0;resizeLast=0;collapsible=1;marginBottom=0;whiteSpace=wrap;html=1;" vertex="1" parent="1">
          <mxGeometry x="850" y="330" width="360" height="270" as="geometry">
            <mxRectangle x="850" y="330" width="80" height="30" as="alternateBounds" />
          </mxGeometry>
        </mxCell>
        <mxCell id="EBlX027B0urtyxHOa7Lw-8" value="-subject: string&lt;div&gt;-mark: int&lt;/div&gt;" style="text;strokeColor=none;fillColor=none;align=left;verticalAlign=top;spacingLeft=4;spacingRight=4;overflow=hidden;rotatable=0;points=[[0,0.5],[1,0.5]];portConstraint=eastwest;whiteSpace=wrap;html=1;" vertex="1" parent="EBlX027B0urtyxHOa7Lw-7">
          <mxGeometry y="26" width="360" height="44" as="geometry" />
        </mxCell>
        <mxCell id="EBlX027B0urtyxHOa7Lw-9" value="" style="line;strokeWidth=1;fillColor=none;align=left;verticalAlign=middle;spacingTop=-1;spacingLeft=3;spacingRight=3;rotatable=0;labelPosition=right;points=[];portConstraint=eastwest;strokeColor=inherit;" vertex="1" parent="EBlX027B0urtyxHOa7Lw-7">
          <mxGeometry y="70" width="360" height="8" as="geometry" />
        </mxCell>
        <mxCell id="EBlX027B0urtyxHOa7Lw-10" value="&lt;div&gt;&lt;font&gt;+Student()&lt;/font&gt;&lt;/div&gt;&lt;div&gt;&lt;font&gt;&lt;span style=&quot;background-color: transparent;&quot;&gt;+&lt;/span&gt;&lt;span style=&quot;background-color: transparent;&quot;&gt;Student(string,int,int,string)&lt;/span&gt;&lt;/font&gt;&lt;/div&gt;&lt;div&gt;&lt;font&gt;&lt;span style=&quot;background-color: transparent;&quot;&gt;+&lt;/span&gt;&lt;span style=&quot;background-color: transparent;&quot;&gt;Student(p : const Student&amp;amp;)&lt;/span&gt;&lt;/font&gt;&lt;/div&gt;&lt;div&gt;&lt;font&gt;&lt;span style=&quot;background-color: transparent;&quot;&gt;+&lt;/span&gt;&lt;span style=&quot;background-color: transparent;&quot;&gt;~Student()&lt;/span&gt;&lt;/font&gt;&lt;/div&gt;&lt;div&gt;&lt;font&gt;&lt;span style=&quot;background-color: transparent;&quot;&gt;&lt;font&gt;+&lt;/font&gt;set_subject(n : string)&lt;font&gt;:&amp;nbsp;&lt;/font&gt;&lt;/span&gt;&lt;span style=&quot;background-color: transparent;&quot;&gt;void&lt;/span&gt;&lt;/font&gt;&lt;/div&gt;&lt;div&gt;&lt;font&gt;&lt;span style=&quot;background-color: transparent;&quot;&gt;&lt;font&gt;+&lt;/font&gt;set_mark(a : int)&lt;font&gt;:&amp;nbsp;&lt;/font&gt;&lt;/span&gt;&lt;span style=&quot;background-color: transparent;&quot;&gt;void&lt;/span&gt;&lt;/font&gt;&lt;/div&gt;&lt;div&gt;&lt;font&gt;&lt;span style=&quot;background-color: transparent;&quot;&gt;&lt;font&gt;+&lt;/font&gt;get_subject()&lt;font&gt;:&amp;nbsp;&lt;/font&gt;&lt;/span&gt;&lt;span style=&quot;background-color: transparent;&quot;&gt;string&lt;/span&gt;&lt;/font&gt;&lt;/div&gt;&lt;div&gt;&lt;font&gt;&lt;span style=&quot;background-color: transparent;&quot;&gt;&lt;font&gt;+&lt;/font&gt;get_mark()&lt;font&gt;:&amp;nbsp;&lt;/font&gt;&lt;/span&gt;&lt;span style=&quot;background-color: transparent;&quot;&gt;int&lt;/span&gt;&lt;/font&gt;&lt;/div&gt;&lt;div&gt;&lt;font&gt;&lt;span style=&quot;background-color: transparent;&quot;&gt;&lt;font&gt;+&lt;/font&gt;operator=(p : const Student&amp;amp;)&lt;font&gt;:&amp;nbsp;&lt;/font&gt;&lt;/span&gt;&lt;span style=&quot;background-color: transparent;&quot;&gt;Student&amp;amp;&lt;/span&gt;&lt;/font&gt;&lt;/div&gt;&lt;div&gt;&lt;font&gt;&lt;span style=&quot;background-color: transparent;&quot;&gt;&lt;font&gt;+&lt;/font&gt;operator&amp;lt;&amp;lt;(out : ostream&amp;amp;,p : const Student&amp;amp;)&lt;font&gt;:&amp;nbsp;&lt;/font&gt;&lt;/span&gt;&lt;span style=&quot;background-color: transparent;&quot;&gt;friend ostream&amp;amp;&lt;/span&gt;&lt;/font&gt;&lt;/div&gt;&lt;div&gt;&lt;font&gt;&lt;span style=&quot;background-color: transparent;&quot;&gt;+operator&amp;gt;&amp;gt;(in : istream&amp;amp;,p : Student&amp;amp;):&amp;nbsp;&lt;/span&gt;&lt;span style=&quot;background-color: transparent;&quot;&gt;friend istream&amp;amp;&lt;/span&gt;&lt;/font&gt;&lt;/div&gt;&lt;div&gt;&lt;font&gt;&lt;span style=&quot;background-color: transparent;&quot;&gt;+printinfo():&amp;nbsp;&lt;/span&gt;&lt;span style=&quot;background-color: transparent;&quot;&gt;void&lt;/span&gt;&lt;/font&gt;&lt;/div&gt;" style="text;strokeColor=none;fillColor=none;align=left;verticalAlign=top;spacingLeft=4;spacingRight=4;overflow=hidden;rotatable=0;points=[[0,0.5],[1,0.5]];portConstraint=eastwest;whiteSpace=wrap;html=1;" vertex="1" parent="EBlX027B0urtyxHOa7Lw-7">
          <mxGeometry y="78" width="360" height="192" as="geometry" />
        </mxCell>
        <mxCell id="EBlX027B0urtyxHOa7Lw-18" value="" style="triangle;whiteSpace=wrap;html=1;direction=west;" vertex="1" parent="1">
          <mxGeometry x="720" y="489" width="20" height="30" as="geometry" />
        </mxCell>
        <mxCell id="EBlX027B0urtyxHOa7Lw-22" value="" style="endArrow=none;html=1;rounded=0;exitX=0;exitY=0.5;exitDx=0;exitDy=0;entryX=0;entryY=0.5;entryDx=0;entryDy=0;" edge="1" parent="1" source="EBlX027B0urtyxHOa7Lw-10" target="EBlX027B0urtyxHOa7Lw-18">
          <mxGeometry width="50" height="50" relative="1" as="geometry">
            <mxPoint x="800" y="500" as="sourcePoint" />
            <mxPoint x="710" y="504" as="targetPoint" />
          </mxGeometry>
        </mxCell>
      </root>
    </mxGraphModel>
  </diagram>
  <diagram id="iFdOub6xeO1SpN8i8jed" name="лаба 5">
    <mxGraphModel dx="1155" dy="659" grid="1" gridSize="10" guides="1" tooltips="1" connect="1" arrows="1" fold="1" page="1" pageScale="1" pageWidth="1169" pageHeight="827" math="0" shadow="0">
      <root>
        <mxCell id="0" />
        <mxCell id="1" parent="0" />
        <mxCell id="CECUjQSuxGlMnq4cO95p-1" value="Person" style="swimlane;fontStyle=1;align=center;verticalAlign=top;childLayout=stackLayout;horizontal=1;startSize=26;horizontalStack=0;resizeParent=1;resizeParentMax=0;resizeLast=0;collapsible=1;marginBottom=0;whiteSpace=wrap;html=1;" parent="1" vertex="1">
          <mxGeometry x="360" y="450" width="360" height="270" as="geometry" />
        </mxCell>
        <mxCell id="CECUjQSuxGlMnq4cO95p-2" value="#name: string&lt;div&gt;#age: int&lt;/div&gt;" style="text;strokeColor=none;fillColor=none;align=left;verticalAlign=top;spacingLeft=4;spacingRight=4;overflow=hidden;rotatable=0;points=[[0,0.5],[1,0.5]];portConstraint=eastwest;whiteSpace=wrap;html=1;" parent="CECUjQSuxGlMnq4cO95p-1" vertex="1">
          <mxGeometry y="26" width="360" height="44" as="geometry" />
        </mxCell>
        <mxCell id="CECUjQSuxGlMnq4cO95p-3" value="" style="line;strokeWidth=1;fillColor=none;align=left;verticalAlign=middle;spacingTop=-1;spacingLeft=3;spacingRight=3;rotatable=0;labelPosition=right;points=[];portConstraint=eastwest;strokeColor=inherit;" parent="CECUjQSuxGlMnq4cO95p-1" vertex="1">
          <mxGeometry y="70" width="360" height="8" as="geometry" />
        </mxCell>
        <mxCell id="CECUjQSuxGlMnq4cO95p-4" value="&lt;div&gt;&lt;font&gt;+Person()&lt;/font&gt;&lt;/div&gt;&lt;div&gt;&lt;span style=&quot;background-color: transparent;&quot;&gt;&lt;font&gt;+Person(n : string,a : int)&lt;/font&gt;&lt;/span&gt;&lt;/div&gt;&lt;div&gt;&lt;span style=&quot;background-color: transparent;&quot;&gt;&lt;font&gt;+Person(p : const Person&amp;amp;)&lt;/font&gt;&lt;/span&gt;&lt;/div&gt;&lt;div&gt;&lt;span style=&quot;background-color: transparent;&quot;&gt;&lt;font&gt;+~Person()&lt;/font&gt;&lt;/span&gt;&lt;/div&gt;&lt;div&gt;&lt;font&gt;&lt;span style=&quot;background-color: transparent;&quot;&gt;+set_name(n : string):&amp;nbsp;&lt;/span&gt;&lt;span style=&quot;background-color: transparent;&quot;&gt;void&lt;/span&gt;&lt;/font&gt;&lt;/div&gt;&lt;div&gt;&lt;font&gt;&lt;span style=&quot;background-color: transparent;&quot;&gt;+set_age(a : int):&amp;nbsp;&lt;/span&gt;&lt;span style=&quot;background-color: transparent;&quot;&gt;void&lt;/span&gt;&lt;/font&gt;&lt;/div&gt;&lt;div&gt;&lt;font&gt;&lt;span style=&quot;background-color: transparent;&quot;&gt;+get_name():&amp;nbsp;&lt;/span&gt;&lt;span style=&quot;background-color: transparent;&quot;&gt;string&lt;/span&gt;&lt;/font&gt;&lt;/div&gt;&lt;div&gt;&lt;font&gt;&lt;span style=&quot;background-color: transparent;&quot;&gt;+get_age():&amp;nbsp;&lt;/span&gt;&lt;span style=&quot;background-color: transparent;&quot;&gt;int&lt;/span&gt;&lt;/font&gt;&lt;/div&gt;&lt;div&gt;&lt;font&gt;&lt;span style=&quot;background-color: transparent;&quot;&gt;+operator=(p : const Person&amp;amp;):&amp;nbsp;&lt;/span&gt;&lt;span style=&quot;background-color: transparent;&quot;&gt;Person&amp;amp;&lt;/span&gt;&lt;/font&gt;&lt;/div&gt;&lt;div&gt;&lt;font&gt;&lt;span style=&quot;background-color: transparent;&quot;&gt;+operator&amp;lt;&amp;lt;(out : ostream&amp;amp;,p : const Person&amp;amp;):&amp;nbsp;&lt;/span&gt;&lt;span style=&quot;background-color: transparent;&quot;&gt;friend ostream&amp;amp;&lt;/span&gt;&lt;/font&gt;&lt;/div&gt;&lt;div&gt;&lt;font&gt;&lt;span style=&quot;background-color: transparent;&quot;&gt;+operator&amp;gt;&amp;gt;(in : istream&amp;amp;,p : Person&amp;amp;):&amp;nbsp;&lt;/span&gt;&lt;span style=&quot;background-color: transparent;&quot;&gt;friend istream&amp;amp;&lt;/span&gt;&lt;/font&gt;&lt;/div&gt;&lt;div&gt;&lt;font&gt;&lt;span style=&quot;background-color: transparent;&quot;&gt;+show():&amp;nbsp;&lt;/span&gt;&lt;span style=&quot;background-color: transparent;&quot;&gt;void&lt;/span&gt;&lt;/font&gt;&lt;/div&gt;" style="text;strokeColor=none;fillColor=none;align=left;verticalAlign=top;spacingLeft=4;spacingRight=4;overflow=hidden;rotatable=0;points=[[0,0.5],[1,0.5]];portConstraint=eastwest;whiteSpace=wrap;html=1;" parent="CECUjQSuxGlMnq4cO95p-1" vertex="1">
          <mxGeometry y="78" width="360" height="192" as="geometry" />
        </mxCell>
        <mxCell id="CECUjQSuxGlMnq4cO95p-5" value="Student" style="swimlane;fontStyle=1;align=center;verticalAlign=top;childLayout=stackLayout;horizontal=1;startSize=26;horizontalStack=0;resizeParent=1;resizeParentMax=0;resizeLast=0;collapsible=1;marginBottom=0;whiteSpace=wrap;html=1;" parent="1" vertex="1">
          <mxGeometry x="840" y="450" width="360" height="270" as="geometry">
            <mxRectangle x="850" y="330" width="80" height="30" as="alternateBounds" />
          </mxGeometry>
        </mxCell>
        <mxCell id="CECUjQSuxGlMnq4cO95p-6" value="-subject: string&lt;div&gt;-mark: int&lt;/div&gt;" style="text;strokeColor=none;fillColor=none;align=left;verticalAlign=top;spacingLeft=4;spacingRight=4;overflow=hidden;rotatable=0;points=[[0,0.5],[1,0.5]];portConstraint=eastwest;whiteSpace=wrap;html=1;" parent="CECUjQSuxGlMnq4cO95p-5" vertex="1">
          <mxGeometry y="26" width="360" height="44" as="geometry" />
        </mxCell>
        <mxCell id="CECUjQSuxGlMnq4cO95p-7" value="" style="line;strokeWidth=1;fillColor=none;align=left;verticalAlign=middle;spacingTop=-1;spacingLeft=3;spacingRight=3;rotatable=0;labelPosition=right;points=[];portConstraint=eastwest;strokeColor=inherit;" parent="CECUjQSuxGlMnq4cO95p-5" vertex="1">
          <mxGeometry y="70" width="360" height="8" as="geometry" />
        </mxCell>
        <mxCell id="CECUjQSuxGlMnq4cO95p-8" value="&lt;div&gt;&lt;font&gt;+Student()&lt;/font&gt;&lt;/div&gt;&lt;div&gt;&lt;font&gt;&lt;span style=&quot;background-color: transparent;&quot;&gt;+&lt;/span&gt;&lt;span style=&quot;background-color: transparent;&quot;&gt;Student(string,int,int,string)&lt;/span&gt;&lt;/font&gt;&lt;/div&gt;&lt;div&gt;&lt;font&gt;&lt;span style=&quot;background-color: transparent;&quot;&gt;+&lt;/span&gt;&lt;span style=&quot;background-color: transparent;&quot;&gt;Student(p : const Student&amp;amp;)&lt;/span&gt;&lt;/font&gt;&lt;/div&gt;&lt;div&gt;&lt;font&gt;&lt;span style=&quot;background-color: transparent;&quot;&gt;+&lt;/span&gt;&lt;span style=&quot;background-color: transparent;&quot;&gt;~Student()&lt;/span&gt;&lt;/font&gt;&lt;/div&gt;&lt;div&gt;&lt;font&gt;&lt;span style=&quot;background-color: transparent;&quot;&gt;&lt;font&gt;+&lt;/font&gt;set_subject(n : string)&lt;font&gt;:&amp;nbsp;&lt;/font&gt;&lt;/span&gt;&lt;span style=&quot;background-color: transparent;&quot;&gt;void&lt;/span&gt;&lt;/font&gt;&lt;/div&gt;&lt;div&gt;&lt;font&gt;&lt;span style=&quot;background-color: transparent;&quot;&gt;&lt;font&gt;+&lt;/font&gt;set_mark(a : int)&lt;font&gt;:&amp;nbsp;&lt;/font&gt;&lt;/span&gt;&lt;span style=&quot;background-color: transparent;&quot;&gt;void&lt;/span&gt;&lt;/font&gt;&lt;/div&gt;&lt;div&gt;&lt;font&gt;&lt;span style=&quot;background-color: transparent;&quot;&gt;&lt;font&gt;+&lt;/font&gt;get_subject()&lt;font&gt;:&amp;nbsp;&lt;/font&gt;&lt;/span&gt;&lt;span style=&quot;background-color: transparent;&quot;&gt;string&lt;/span&gt;&lt;/font&gt;&lt;/div&gt;&lt;div&gt;&lt;font&gt;&lt;span style=&quot;background-color: transparent;&quot;&gt;&lt;font&gt;+&lt;/font&gt;get_mark()&lt;font&gt;:&amp;nbsp;&lt;/font&gt;&lt;/span&gt;&lt;span style=&quot;background-color: transparent;&quot;&gt;int&lt;/span&gt;&lt;/font&gt;&lt;/div&gt;&lt;div&gt;&lt;font&gt;&lt;span style=&quot;background-color: transparent;&quot;&gt;&lt;font&gt;+&lt;/font&gt;operator=(p : const Student&amp;amp;)&lt;font&gt;:&amp;nbsp;&lt;/font&gt;&lt;/span&gt;&lt;span style=&quot;background-color: transparent;&quot;&gt;Student&amp;amp;&lt;/span&gt;&lt;/font&gt;&lt;/div&gt;&lt;div&gt;&lt;font&gt;&lt;span style=&quot;background-color: transparent;&quot;&gt;&lt;font&gt;+&lt;/font&gt;operator&amp;lt;&amp;lt;(out : ostream&amp;amp;,p : const Student&amp;amp;)&lt;font&gt;:&amp;nbsp;&lt;/font&gt;&lt;/span&gt;&lt;span style=&quot;background-color: transparent;&quot;&gt;friend ostream&amp;amp;&lt;/span&gt;&lt;/font&gt;&lt;/div&gt;&lt;div&gt;&lt;font&gt;&lt;span style=&quot;background-color: transparent;&quot;&gt;+operator&amp;gt;&amp;gt;(in : istream&amp;amp;,p : Student&amp;amp;):&amp;nbsp;&lt;/span&gt;&lt;span style=&quot;background-color: transparent;&quot;&gt;friend istream&amp;amp;&lt;/span&gt;&lt;/font&gt;&lt;/div&gt;&lt;div&gt;&lt;font&gt;&lt;span style=&quot;background-color: transparent;&quot;&gt;+printinfo():&amp;nbsp;&lt;/span&gt;&lt;span style=&quot;background-color: transparent;&quot;&gt;void&lt;/span&gt;&lt;/font&gt;&lt;/div&gt;" style="text;strokeColor=none;fillColor=none;align=left;verticalAlign=top;spacingLeft=4;spacingRight=4;overflow=hidden;rotatable=0;points=[[0,0.5],[1,0.5]];portConstraint=eastwest;whiteSpace=wrap;html=1;" parent="CECUjQSuxGlMnq4cO95p-5" vertex="1">
          <mxGeometry y="78" width="360" height="192" as="geometry" />
        </mxCell>
        <mxCell id="CECUjQSuxGlMnq4cO95p-9" value="" style="triangle;whiteSpace=wrap;html=1;direction=west;" parent="1" vertex="1">
          <mxGeometry x="720" y="609" width="20" height="30" as="geometry" />
        </mxCell>
        <mxCell id="CECUjQSuxGlMnq4cO95p-10" value="" style="endArrow=none;html=1;rounded=0;exitX=0;exitY=0.5;exitDx=0;exitDy=0;entryX=0;entryY=0.5;entryDx=0;entryDy=0;" parent="1" source="CECUjQSuxGlMnq4cO95p-8" target="CECUjQSuxGlMnq4cO95p-9" edge="1">
          <mxGeometry width="50" height="50" relative="1" as="geometry">
            <mxPoint x="790" y="620" as="sourcePoint" />
            <mxPoint x="700" y="624" as="targetPoint" />
          </mxGeometry>
        </mxCell>
        <mxCell id="CECUjQSuxGlMnq4cO95p-11" value="" style="triangle;whiteSpace=wrap;html=1;direction=north;" parent="1" vertex="1">
          <mxGeometry x="525" y="240" width="30" height="20" as="geometry" />
        </mxCell>
        <mxCell id="CECUjQSuxGlMnq4cO95p-12" value="" style="endArrow=none;html=1;rounded=0;exitX=0;exitY=0.5;exitDx=0;exitDy=0;entryX=0.5;entryY=0;entryDx=0;entryDy=0;" parent="1" source="CECUjQSuxGlMnq4cO95p-11" target="CECUjQSuxGlMnq4cO95p-1" edge="1">
          <mxGeometry width="50" height="50" relative="1" as="geometry">
            <mxPoint x="430" y="185" as="sourcePoint" />
            <mxPoint x="570" y="185" as="targetPoint" />
          </mxGeometry>
        </mxCell>
        <mxCell id="CECUjQSuxGlMnq4cO95p-13" value="Object" style="swimlane;fontStyle=1;align=center;verticalAlign=top;childLayout=stackLayout;horizontal=1;startSize=26;horizontalStack=0;resizeParent=1;resizeParentMax=0;resizeLast=0;collapsible=1;marginBottom=0;whiteSpace=wrap;html=1;" parent="1" vertex="1">
          <mxGeometry x="465" y="150" width="150" height="90" as="geometry" />
        </mxCell>
        <mxCell id="CECUjQSuxGlMnq4cO95p-15" value="" style="line;strokeWidth=1;fillColor=none;align=left;verticalAlign=middle;spacingTop=-1;spacingLeft=3;spacingRight=3;rotatable=0;labelPosition=right;points=[];portConstraint=eastwest;strokeColor=inherit;" parent="CECUjQSuxGlMnq4cO95p-13" vertex="1">
          <mxGeometry y="26" width="150" height="8" as="geometry" />
        </mxCell>
        <mxCell id="CECUjQSuxGlMnq4cO95p-16" value="+&amp;nbsp;Object()&lt;div&gt;+ ~Object() : virtual&lt;/div&gt;&lt;div&gt;+ show() = 0 : virtual void&amp;nbsp;&lt;/div&gt;" style="text;strokeColor=none;fillColor=none;align=left;verticalAlign=top;spacingLeft=4;spacingRight=4;overflow=hidden;rotatable=0;points=[[0,0.5],[1,0.5]];portConstraint=eastwest;whiteSpace=wrap;html=1;" parent="CECUjQSuxGlMnq4cO95p-13" vertex="1">
          <mxGeometry y="34" width="150" height="56" as="geometry" />
        </mxCell>
        <mxCell id="CECUjQSuxGlMnq4cO95p-22" value="Vector" style="swimlane;fontStyle=1;align=center;verticalAlign=top;childLayout=stackLayout;horizontal=1;startSize=26;horizontalStack=0;resizeParent=1;resizeParentMax=0;resizeLast=0;collapsible=1;marginBottom=0;whiteSpace=wrap;html=1;" parent="1" vertex="1">
          <mxGeometry x="750" y="127" width="320" height="170" as="geometry">
            <mxRectangle x="850" y="330" width="80" height="30" as="alternateBounds" />
          </mxGeometry>
        </mxCell>
        <mxCell id="CECUjQSuxGlMnq4cO95p-23" value="-&amp;nbsp;beg :&amp;nbsp;Object**&amp;nbsp;&lt;div&gt;- size : int&lt;/div&gt;&lt;div&gt;-cur : int&lt;/div&gt;&lt;div&gt;&lt;br&gt;&lt;/div&gt;" style="text;strokeColor=none;fillColor=none;align=left;verticalAlign=top;spacingLeft=4;spacingRight=4;overflow=hidden;rotatable=0;points=[[0,0.5],[1,0.5]];portConstraint=eastwest;whiteSpace=wrap;html=1;" parent="CECUjQSuxGlMnq4cO95p-22" vertex="1">
          <mxGeometry y="26" width="320" height="54" as="geometry" />
        </mxCell>
        <mxCell id="CECUjQSuxGlMnq4cO95p-24" value="" style="line;strokeWidth=1;fillColor=none;align=left;verticalAlign=middle;spacingTop=-1;spacingLeft=3;spacingRight=3;rotatable=0;labelPosition=right;points=[];portConstraint=eastwest;strokeColor=inherit;" parent="CECUjQSuxGlMnq4cO95p-22" vertex="1">
          <mxGeometry y="80" width="320" height="8" as="geometry" />
        </mxCell>
        <mxCell id="CECUjQSuxGlMnq4cO95p-25" value="+ Vector()&lt;div&gt;+ Vector(int)&lt;/div&gt;&lt;div&gt;+ ~Vector()&lt;/div&gt;&lt;div&gt;+ add(Object*) : void&lt;/div&gt;&lt;div&gt;+&amp;nbsp;operator&amp;lt;&amp;lt;(ostream&amp;amp;,const Vector&amp;amp;) :&amp;nbsp;friend ostream&amp;amp;&lt;/div&gt;" style="text;strokeColor=none;fillColor=none;align=left;verticalAlign=top;spacingLeft=4;spacingRight=4;overflow=hidden;rotatable=0;points=[[0,0.5],[1,0.5]];portConstraint=eastwest;whiteSpace=wrap;html=1;" parent="CECUjQSuxGlMnq4cO95p-22" vertex="1">
          <mxGeometry y="88" width="320" height="82" as="geometry" />
        </mxCell>
        <mxCell id="6jSV0yMl2_1pA3-93zxl-1" value="1" style="endArrow=open;html=1;endSize=12;startArrow=diamondThin;startSize=14;startFill=0;edgeStyle=orthogonalEdgeStyle;align=left;verticalAlign=bottom;rounded=0;exitX=0.009;exitY=1.074;exitDx=0;exitDy=0;exitPerimeter=0;entryX=0.989;entryY=0.468;entryDx=0;entryDy=0;entryPerimeter=0;" edge="1" parent="1" source="CECUjQSuxGlMnq4cO95p-23" target="CECUjQSuxGlMnq4cO95p-16">
          <mxGeometry x="-1" y="3" relative="1" as="geometry">
            <mxPoint x="544.5" y="10" as="sourcePoint" />
            <mxPoint x="640" y="210" as="targetPoint" />
            <Array as="points">
              <mxPoint x="710" y="211" />
            </Array>
          </mxGeometry>
        </mxCell>
      </root>
    </mxGraphModel>
  </diagram>
</mxfile>
